HIERARCHY
ROOT pelvis
{
  OFFSET 0 100 0
  CHANNELS 6 Xposition Yposition Zposition Zrotation Xrotation Yrotation
  JOINT pelvis_right_femur
  {
    OFFSET -10.78128 -3.44521 -0.5502486
    CHANNELS 3 Zrotation Xrotation Yrotation
    JOINT right_femur_tibia
    {
      OFFSET -0.8047443 -44.0398 -0.1307829
      CHANNELS 3 Zrotation Xrotation Yrotation
      JOINT right_tibia_foot
      {
        OFFSET 3.006224 -47.83518 -5
        CHANNELS 3 Zrotation Xrotation Yrotation
        End Site
        {
          OFFSET 0 -5 15
        }
      }
    }
  }
  JOINT pelvis_left_femur
  {
    OFFSET 10.78128 -3.44521 -0.5502486
    CHANNELS 3 Zrotation Xrotation Yrotation
    JOINT left_femur_tibia
    {
      OFFSET 0.8047443 -44.0398 -0.1307829
      CHANNELS 3 Zrotation Xrotation Yrotation
      JOINT left_tibia_foot
      {
        OFFSET -4.370144 -48.10324 -4.275266
        CHANNELS 3 Zrotation Xrotation Yrotation
        End Site
        {
          OFFSET 0 -5 15
        }
      }
    }
  }
  JOINT pelvis_spine1
  {
    OFFSET 0 6.468898 -3.129235
    CHANNELS 3 Zrotation Xrotation Yrotation
    JOINT spine1
    {
      OFFSET 0 23.15396 4.99043
      CHANNELS 3 Zrotation Xrotation Yrotation
      JOINT spine2
      {
        OFFSET 0 20.79997 -5.064912
        CHANNELS 3 Zrotation Xrotation Yrotation
        JOINT neck
        {
          OFFSET 0 14.38658 9.616178
          CHANNELS 3 Zrotation Xrotation Yrotation
          End Site
          {
            OFFSET 0 20 0
          }
        }
      }
      JOINT right_manubrium
      {
        OFFSET -5.722621 16.35077 3.967754
        CHANNELS 3 Zrotation Xrotation Yrotation
        JOINT right_clavicle
        {
          OFFSET -13.16364 1.694482 -4.693211
          CHANNELS 3 Zrotation Xrotation Yrotation
          JOINT right_humerus
          {
            OFFSET -28.5034 -0.3100689 -2.792744
            CHANNELS 3 Zrotation Xrotation Yrotation
            JOINT right_radius
            {
              OFFSET -25.15693 0.02248979 -1.271978
              CHANNELS 3 Zrotation Xrotation Yrotation
              End Site
              {
                OFFSET -15 0 0
              }
            }
          }
        }
      }
      JOINT left_manubrium
      {
        OFFSET 5.722621 16.35077 3.967754
        CHANNELS 3 Zrotation Xrotation Yrotation
        JOINT left_clavicle
        {
          OFFSET 13.16364 1.694482 -4.693211
          CHANNELS 3 Zrotation Xrotation Yrotation
          JOINT left_humerus
          {
            OFFSET 29.39168 -1.063119 -2.237045
            CHANNELS 3 Zrotation Xrotation Yrotation
            JOINT left_radius
            {
              OFFSET 24.59957 -0.9528479 0.9047498
              CHANNELS 3 Zrotation Xrotation Yrotation
              End Site
              {
                OFFSET 15 -0 -0
              }
            }
          }
        }
      }
    }
  }
}
MOTION
Frames: 17
Frame Time: 0.0416666666667
-1653.718 100.5244 2285.493 -7.606383 -1.800355 -85.98415 3.838666 9.876246 6.460703 -0 12.69765 -0 1.317867 -12.12353 -3.048458 1.319086 -22.7993 -1.931892 -0 38.89667 -0 -7.144185 -7.205068 18.25633 -0.8429607 2.046393 8.654728 -0.451152 11.34634 -3.541913 1.857591 21.87507 4.831121 2.422357 -16.67968 5.772145 2.206394 -20.83951 12.38272 81.79236 23.99518 -9.129068 -0 0 21.38141 -22.98633 10.97682 13.36697 4.49995 -17.8793 -3.587478 -90.86583 21.4734 20.91781 0 0 -17.37247 -0.7000816 4.648007 14.6654
-1659.851 99.36209 2286.661 -7.577349 -1.705704 -86.73635 3.334248 13.02759 6.287622 -0 14.5092 -0 2.195539 -13.6027 -2.53848 1.774846 -24.5986 -1.841854 -0 32.2686 -0 -7.360676 -7.688771 18.53568 -0.764538 1.62092 8.768736 -0.8706271 10.73698 -3.139698 1.979701 21.90553 4.591082 2.174369 -16.05368 5.777851 1.536927 -21.38933 12.05881 81.09705 22.52105 -7.523982 -0 0 23.75897 -23.74399 10.68143 13.55993 4.619847 -16.88812 -3.336629 -91.71887 21.83588 22.10179 0 0 -15.25312 -1.421335 5.064761 14.99817
-1666.278 98.21653 2287.896 -7.622553 -1.705037 -87.37559 2.813992 15.37059 6.165913 -0 17.37915 -0 2.803949 -14.18459 -2.456658 1.478903 -24.91145 -2.436664 -0 28.82167 -0 -7.537566 -7.860469 18.75823 -0.8655338 1.101448 8.767431 -1.118747 10.1989 -2.893859 2.179652 22.01353 4.31505 1.983874 -15.54876 5.809376 1.165203 -21.45426 11.73369 80.83592 21.49585 -6.639499 -0 0 25.00727 -24.10715 10.50605 13.50397 4.570593 -15.96875 -3.164232 -92.4973 22.42516 22.97931 0 0 -13.01864 -2.244223 5.57985 15.52214
-1672.89 97.26476 2289.14 -7.852347 -1.835349 -87.89292 2.232855 16.99744 5.952889 -0 20.96555 -0 2.909699 -14.09727 -2.714049 0.6278339 -24.27692 -3.485998 -0 27.64261 -0 -7.428505 -7.863256 19.05717 -1.18055 0.6792454 8.624818 -1.243271 9.689091 -2.682191 2.441624 22.34579 3.996779 1.814997 -15.08438 5.861871 1.012206 -21.09684 11.41968 80.88078 20.92555 -6.091093 -0 0 25.1177 -24.09495 10.31172 13.3101 4.385604 -15.15536 -3.088984 -93.08615 23.15766 23.39728 0 0 -10.80555 -2.934625 6.309167 16.02452
-1679.575 96.62372 2290.359 -8.14992 -2.045169 -88.26622 1.614393 17.77035 5.621467 -0 25.13876 -0 2.551296 -13.27468 -3.154399 -0.5333695 -22.96134 -4.722343 -0 27.46767 -0 -6.870328 -7.84815 19.39844 -1.657065 0.3748894 8.345772 -1.283638 9.255526 -2.50892 2.702765 22.81483 3.707002 1.682946 -14.73239 5.931336 1.038268 -20.49134 11.14689 81.12447 20.82094 -5.734275 -0 0 24.33567 -23.87003 10.08003 13.14051 4.112624 -14.53502 -3.117402 -93.3749 23.81079 23.40848 0 0 -8.885742 -3.300547 7.189726 16.34354
-1686.25 96.36154 2291.548 -8.371079 -2.271168 -88.46018 1.008829 17.45867 5.187529 -0 29.91001 -0 1.868172 -11.48597 -3.634471 -1.817215 -21.02926 -5.942309 -0 27.39688 -0 -5.834734 -7.942358 19.67334 -2.216446 0.1575928 7.945858 -1.265989 8.996191 -2.429602 2.89186 23.26344 3.54174 1.625648 -14.6209 6.020305 1.227317 -19.81224 10.95632 81.53087 21.16359 -5.607201 -0 0 22.9247 -23.60452 9.854831 13.11147 3.804264 -14.21162 -3.255894 -93.29998 24.16365 23.12515 0 0 -7.496606 -3.206383 8.085408 16.34703
-1692.845 96.50279 2292.715 -8.474548 -2.46262 -88.429 0.4816471 15.82727 4.662475 -0 35.2964 -0 0.9954727 -8.58044 -4.063444 -3.079222 -18.40607 -7.002268 -0 26.98536 -0 -4.439181 -8.261518 19.765 -2.766234 0.02057128 7.421326 -1.210123 9.002955 -2.499563 2.954021 23.57859 3.576154 1.665418 -14.82989 6.139417 1.540202 -19.18228 10.88156 82.16058 21.83353 -5.848353 -0 0 21.07945 -23.40674 9.688103 13.23859 3.517954 -14.27852 -3.518753 -92.83154 24.08759 22.59086 0 0 -6.811445 -2.576487 8.87397 15.91933
-1699.289 97.02708 2293.866 -8.494515 -2.570141 -88.12598 0.1162425 12.69098 4.049184 -0 41.08621 -0 0.02472249 -4.759763 -4.398061 -4.17059 -14.99029 -7.793557 -0 26.06817 -0 -2.913304 -8.895395 19.56493 -3.199214 -0.01426485 6.74506 -1.118087 9.310703 -2.772519 2.849206 23.71882 3.846367 1.794073 -15.35083 6.294482 1.922487 -18.66319 10.94204 83.09248 22.66804 -6.620484 -0 0 18.94836 -23.28873 9.629764 13.4401 3.305244 -14.79853 -3.914453 -91.95571 23.59785 21.7506 0 0 -6.991625 -1.427816 9.475377 14.99863
-1705.498 97.84083 2294.99 -8.500535 -2.530672 -87.53518 0.01589828 8.011538 3.337986 -0 46.43043 -0 -1.038079 -0.8389963 -4.664197 -4.913681 -10.75133 -8.257522 -0 24.63963 -0 -1.547849 -9.871498 19.02854 -3.403808 0.08728489 5.861587 -0.9490316 9.825587 -3.295839 2.575663 23.74995 4.306655 1.957821 -16.03845 6.468481 2.299989 -18.23018 11.11952 84.32537 23.49014 -8.007429 -0 0 16.6449 -23.15946 9.705238 13.56133 3.200168 -15.75846 -4.430064 -90.69309 22.91121 20.4299 0 0 -8.138135 0.05693012 9.941246 13.64763
-1711.377 98.7276 2296.025 -8.609806 -2.259024 -86.73424 0.3004001 1.928917 2.507127 -0 49.45584 -0 -2.343103 1.751596 -5.028611 -5.131893 -5.648207 -8.472299 -0 22.90986 -0 -0.6288936 -11.16536 18.27744 -3.282379 0.3609205 4.668497 -0.6031346 10.24268 -4.064509 2.251031 23.90023 4.746464 2.028492 -16.57882 6.629152 2.497917 -17.7209 11.29645 85.77145 23.97797 -9.90935 -0 0 14.20354 -22.798 9.836753 13.38178 3.215893 -16.98564 -5.031025 -89.17493 22.48566 18.33556 0 0 -10.0824 1.457388 10.63536 12.15051
-1716.865 99.36586 2296.844 -8.770014 -1.637842 -85.94017 1.092264 -5.55713 1.646501 -0 47.58415 -0 -4.188119 1.727082 -5.765655 -4.763066 0.572563 -8.790641 -0 21.44963 -0 -0.3523411 -12.80341 17.50272 -2.791004 0.797247 3.076452 0.07809119 10.09324 -5.004535 2.136092 24.39568 4.835884 1.857252 -16.77251 6.783954 2.288216 -16.86074 11.25022 87.26544 23.80564 -12.10038 -0 0 11.60497 -21.72923 9.832315 12.63065 3.337535 -18.11541 -5.62849 -87.73894 22.91409 15.36652 0 0 -12.31375 2.161378 12.13118 11.11832
-1722.022 99.55802 2297.342 -7.886488 -0.5270764 -85.40103 2.485202 -14.99161 1.327994 -0 39.25277 -0 -6.514405 -0.5608769 -6.783707 -4.035233 7.903813 -9.82936 -0 21.00353 -0 -0.8384366 -14.92057 16.32709 -2.08515 1.184871 1.37666 1.299515 9.130512 -6.143876 2.320438 24.73622 4.604831 1.582202 -17.40004 7.016266 2.028183 -15.56529 10.90023 88.31209 23.9528 -14.66314 -0 0 9.198802 -19.15576 9.730439 11.17403 3.513916 -18.78812 -5.891164 -86.92367 24.55178 12.57142 0 0 -14.58152 1.551406 14.0736 11.54091
-1727.119 99.48843 2297.649 -3.874443 0.8650769 -85.12087 4.29269 -25.8621 2.397506 -0 26.51149 -0 -7.978353 -2.408107 -6.928176 -3.62038 14.38898 -11.66199 -0 21.52307 -0 -2.141745 -17.38113 13.52332 -1.741697 1.061588 0.6746952 3.024423 7.913259 -7.648152 2.256425 23.41723 4.917506 1.857226 -20.22609 7.34364 3.054209 -14.42264 10.61766 88.23038 27.3881 -18.16135 -0 0 7.996633 -14.94884 10.14753 9.496821 3.712724 -19.13492 -5.279601 -87.03476 26.7327 12.2895 0 0 -17.76036 -0.3118264 13.99099 13.93481
-1732.608 99.21177 2298.072 1.455141 1.403684 -84.8441 5.017108 -32.85145 3.255356 -0 15.30261 -0 -7.507576 -1.026677 -5.469393 -4.179733 16.86214 -12.26916 -0 21.68532 -0 -3.626815 -18.98518 9.49695 -2.136232 0.282855 1.603636 4.224365 7.689802 -9.002949 1.554172 20.78771 6.018683 2.775712 -24.13117 7.442693 4.961415 -14.27108 10.86658 88.29054 32.85288 -22.07921 -0 0 7.631489 -12.23638 11.25814 8.853379 4.050544 -20.17381 -4.418937 -86.74661 27.11225 13.64931 0 0 -22.68152 -1.242297 11.01362 15.76826
-1738.778 98.36751 2298.59 2.617962 0.7146686 -84.43247 3.958727 -32.10747 2.030526 -0 9.777625 -0 -6.14144 1.871554 -4.786883 -4.766989 16.67897 -10.29323 -0 22.09465 -0 -4.374242 -18.37416 7.465947 -2.346013 -0.7517119 2.650661 3.981073 8.75647 -9.508337 0.8944024 19.5887 6.548384 3.187958 -24.91457 6.909848 5.192441 -14.76471 11.3852 89.87303 33.66048 -24.72631 -0 0 6.369634 -14.09392 12.25331 9.576608 4.631526 -22.27783 -4.663363 -84.53373 24.62561 12.28876 0 0 -27.59219 0.06482248 8.78275 14.55636
-1745.595 97.4269 2299.055 0.8276217 0.09076145 -84.06637 3.787146 -28.64147 2.064208 -0 9.302492 -0 -3.816606 2.868769 -5.972223 -4.573488 16.88202 -8.247561 -0 25.75956 -0 -4.883255 -16.14942 8.321287 -2.009007 -1.521312 3.003409 3.313889 9.95395 -9.661032 0.7130309 19.48601 6.490163 3.1876 -23.29853 6.396867 4.736598 -14.88182 11.66006 91.13105 31.83995 -25.93293 -0 0 5.347523 -16.98536 13.0811 10.08435 5.245501 -23.69055 -4.966679 -82.46845 21.95498 9.571489 0 0 -30.06913 1.788117 7.596043 12.34872
-1752.867 97.02195 2299.434 -1.238596 -0.02744585 -83.96249 4.720446 -25.16933 3.542706 -0 11.26436 -0 -1.742585 2.175924 -7.290284 -4.038209 16.96686 -7.364415 -0 32.98475 -0 -5.863923 -13.37168 10.09413 -1.470018 -1.757246 3.087066 2.915546 10.64389 -9.589775 0.8954619 19.65792 6.296381 3.153479 -21.65281 6.284853 4.513988 -14.58643 11.64819 91.44815 30.28826 -26.14752 -0 0 5.179304 -18.20936 13.56938 9.760638 5.494988 -23.73314 -4.782916 -81.88922 20.9128 8.054011 0 0 -29.89732 2.685297 6.773598 11.01848
